<svg xmlns="http://www.w3.org/2000/svg" viewBox="0 0 40 40" width="80" height="80">
  <path fill="#24292f" d="M10 10.5A2.5 2.5 0 0 1 12.5 8h15.75a.75.75 0 0 1 .75.75v18.5a.75.75 0 0 1-.75.75h-2.5a.75.75 0 0 1 0-1.5h1.75v-13h-12a1 1 0 0 0-.714 1.7.75.75 0 1 1-1.072 1.05A2.495 2.495 0 0 1 10 21.5Zm12.5-1h-10a1 1 0 0 0-1 1v10.708A2.486 2.486 0 0 1 12.5 19h10ZM13 25.25a.25.25 0 0 1 .25-.25h3.5a.25.25 0 0 1 .25.25v3.25a.25.25 0 0 1-.4.2l-1.45-1.087a.249.249 0 0 0-.3 0L13.4 28.7a.25.25 0 0 1-.4-.2Z"/>
  
  <g transform="translate(18, 2)">
    <path fill="#2ea44f" d="M2 8C2 3.5 6 0 10 0C10 4.5 6 8 2 8Z" />
    <path fill="#2ea44f" d="M2 8C2 3.5 -2 0 -6 0C-6 4.5 -2 8 2 8Z" />
    
    <rect fill="#2ea44f" x="0.5" y="7" width="3" height="10" rx="1" />
    <path stroke="white" stroke-width="0.8" fill="none" d="M0 10 H-1.5 V15 H0 M4 10 V15" />
  </g>
</svg>
